<?xml version="1.0" standalone="no"?>
<!DOCTYPE svg PUBLIC "-//W3C//DTD SVG 20010904//EN"
 "http://www.w3.org/TR/2001/REC-SVG-20010904/DTD/svg10.dtd">
<svg version="1.0" xmlns="http://www.w3.org/2000/svg"
 width="398.000000pt" height="398.000000pt" viewBox="0 0 398.000000 398.000000"
 preserveAspectRatio="xMidYMid meet">
<metadata>
Created by potrace 1.14, written by Peter Selinger 2001-2017
</metadata>
<g transform="translate(0.000000,398.000000) scale(0.100000,-0.100000)"
fill="#000000" stroke="none">
<path d="M1128 3482 l-858 -497 0 -995 0 -995 860 -497 860 -498 860 498 860
497 0 995 0 995 -855 495 c-471 272 -859 496 -863 497 -4 1 -393 -222 -864
-495z m1417 -347 c110 -19 243 -69 317 -118 122 -81 220 -222 253 -359 15 -65
19 -185 9 -250 l-7 -38 -212 0 -212 0 -6 74 c-15 206 -152 316 -393 316 -181
0 -320 -56 -445 -180 -303 -302 -432 -972 -230 -1202 75 -84 193 -128 346
-128 177 0 306 51 421 165 52 52 82 92 112 154 23 46 42 90 42 97 0 12 39 14
220 14 121 0 220 -1 220 -3 0 -23 -70 -199 -106 -268 -158 -298 -446 -493
-801 -540 -123 -16 -345 -6 -453 21 -216 53 -372 175 -462 360 -60 123 -78
198 -85 346 -15 332 94 731 274 1003 71 107 218 260 320 333 140 101 308 173
470 202 105 19 300 19 408 1z"/>
</g>
</svg>
